<svg width="16" height="16" viewBox="0 0 16 16" fill="none" xmlns="http://www.w3.org/2000/svg">
<path d="M4.66669 3.33333H14V4.66667H4.66669V3.33333ZM4.66669 8.66667V7.33333H14V8.66667H4.66669ZM2.66669 3C2.9319 3 3.18626 3.10536 3.37379 3.29289C3.56133 3.48043 3.66669 3.73478 3.66669 4C3.66669 4.26522 3.56133 4.51957 3.37379 4.70711C3.18626 4.89464 2.9319 5 2.66669 5C2.40147 5 2.14712 4.89464 1.95958 4.70711C1.77204 4.51957 1.66669 4.26522 1.66669 4C1.66669 3.73478 1.77204 3.48043 1.95958 3.29289C2.14712 3.10536 2.40147 3 2.66669 3ZM2.66669 7C2.9319 7 3.18626 7.10536 3.37379 7.29289C3.56133 7.48043 3.66669 7.73478 3.66669 8C3.66669 8.26522 3.56133 8.51957 3.37379 8.70711C3.18626 8.89464 2.9319 9 2.66669 9C2.40147 9 2.14712 8.89464 1.95958 8.70711C1.77204 8.51957 1.66669 8.26522 1.66669 8C1.66669 7.73478 1.77204 7.48043 1.95958 7.29289C2.14712 7.10536 2.40147 7 2.66669 7ZM4.66669 12.6667V11.3333H14V12.6667H4.66669ZM2.66669 11C2.9319 11 3.18626 11.1054 3.37379 11.2929C3.56133 11.4804 3.66669 11.7348 3.66669 12C3.66669 12.2652 3.56133 12.5196 3.37379 12.7071C3.18626 12.8946 2.9319 13 2.66669 13C2.40147 13 2.14712 12.8946 1.95958 12.7071C1.77204 12.5196 1.66669 12.2652 1.66669 12C1.66669 11.7348 1.77204 11.4804 1.95958 11.2929C2.14712 11.1054 2.40147 11 2.66669 11Z" fill="black"/>
</svg>
