<svg width="22" height="22" viewBox="0 0 22 22" fill="none" xmlns="http://www.w3.org/2000/svg">
<path d="M11 1.83337C9.79626 1.83337 8.60426 2.07048 7.49211 2.53115C6.37996 2.99181 5.36943 3.66702 4.51823 4.51823C2.79915 6.23731 1.83337 8.56889 1.83337 11C1.83337 13.4312 2.79915 15.7628 4.51823 17.4819C5.36943 18.3331 6.37996 19.0083 7.49211 19.4689C8.60426 19.9296 9.79626 20.1667 11 20.1667C13.4312 20.1667 15.7628 19.2009 17.4819 17.4819C19.2009 15.7628 20.1667 13.4312 20.1667 11C20.1667 9.93671 19.9742 8.88254 19.6075 7.89254L18.1409 9.35921C18.2692 9.90004 18.3334 10.45 18.3334 11C18.3334 12.945 17.5608 14.8102 16.1855 16.1855C14.8102 17.5608 12.945 18.3334 11 18.3334C9.05512 18.3334 7.18986 17.5608 5.81459 16.1855C4.43932 14.8102 3.66671 12.945 3.66671 11C3.66671 9.05512 4.43932 7.18986 5.81459 5.81459C7.18986 4.43932 9.05512 3.66671 11 3.66671C11.55 3.66671 12.1 3.73087 12.6409 3.85921L14.1167 2.38337C13.1175 2.02587 12.0634 1.83337 11 1.83337ZM17.4167 1.83337L13.75 5.50004V6.87504L11.4125 9.21254C11.275 9.16671 11.1375 9.16671 11 9.16671C10.5138 9.16671 10.0475 9.35986 9.70368 9.70368C9.35986 10.0475 9.16671 10.5138 9.16671 11C9.16671 11.4863 9.35986 11.9526 9.70368 12.2964C10.0475 12.6402 10.5138 12.8334 11 12.8334C11.4863 12.8334 11.9526 12.6402 12.2964 12.2964C12.6402 11.9526 12.8334 11.4863 12.8334 11C12.8334 10.8625 12.8334 10.725 12.7875 10.5875L15.125 8.25004H16.5L20.1667 4.58337H17.4167V1.83337ZM11 5.50004C9.54135 5.50004 8.1424 6.0795 7.11095 7.11095C6.0795 8.1424 5.50004 9.54135 5.50004 11C5.50004 12.4587 6.0795 13.8577 7.11095 14.8891C8.1424 15.9206 9.54135 16.5 11 16.5C12.4587 16.5 13.8577 15.9206 14.8891 14.8891C15.9206 13.8577 16.5 12.4587 16.5 11H14.6667C14.6667 11.9725 14.2804 12.9051 13.5928 13.5928C12.9051 14.2804 11.9725 14.6667 11 14.6667C10.0276 14.6667 9.09495 14.2804 8.40732 13.5928C7.71968 12.9051 7.33337 11.9725 7.33337 11C7.33337 10.0276 7.71968 9.09495 8.40732 8.40732C9.09495 7.71968 10.0276 7.33337 11 7.33337V5.50004Z" fill="black"/>
</svg>
