<svg width="30" height="30" viewBox="0 0 30 30" fill="none" xmlns="http://www.w3.org/2000/svg">
<path d="M20 15C20 14.337 20.2634 13.7011 20.7322 13.2322C21.2011 12.7634 21.837 12.5 22.5 12.5C23.163 12.5 23.7989 12.7634 24.2678 13.2322C24.7366 13.7011 25 14.337 25 15C25 15.663 24.7366 16.2989 24.2678 16.7678C23.7989 17.2366 23.163 17.5 22.5 17.5C21.837 17.5 21.2011 17.2366 20.7322 16.7678C20.2634 16.2989 20 15.663 20 15ZM12.5 15C12.5 14.337 12.7634 13.7011 13.2322 13.2322C13.7011 12.7634 14.337 12.5 15 12.5C15.663 12.5 16.2989 12.7634 16.7678 13.2322C17.2366 13.7011 17.5 14.337 17.5 15C17.5 15.663 17.2366 16.2989 16.7678 16.7678C16.2989 17.2366 15.663 17.5 15 17.5C14.337 17.5 13.7011 17.2366 13.2322 16.7678C12.7634 16.2989 12.5 15.663 12.5 15ZM5 15C5 14.337 5.26339 13.7011 5.73223 13.2322C6.20107 12.7634 6.83696 12.5 7.5 12.5C8.16304 12.5 8.79893 12.7634 9.26777 13.2322C9.73661 13.7011 10 14.337 10 15C10 15.663 9.73661 16.2989 9.26777 16.7678C8.79893 17.2366 8.16304 17.5 7.5 17.5C6.83696 17.5 6.20107 17.2366 5.73223 16.7678C5.26339 16.2989 5 15.663 5 15Z" fill="white"/>
</svg>
